<?xml version="1.0" encoding="UTF-8" standalone="no"?>
<svg
   xmlns:ooo="http://xml.openoffice.org/svg/export"
   xmlns:dc="http://purl.org/dc/elements/1.1/"
   xmlns:cc="http://creativecommons.org/ns#"
   xmlns:rdf="http://www.w3.org/1999/02/22-rdf-syntax-ns#"
   xmlns:svg="http://www.w3.org/2000/svg"
   xmlns="http://www.w3.org/2000/svg"
   xmlns:sodipodi="http://sodipodi.sourceforge.net/DTD/sodipodi-0.dtd"
   xmlns:inkscape="http://www.inkscape.org/namespaces/inkscape"
   version="1.2"
   width="111.28222mm"
   height="110.28222mm"
   viewBox="0 0 11128.222 11028.222"
   preserveAspectRatio="xMidYMid"
   xml:space="preserve"
   id="svg4777"
   sodipodi:docname="reset.svg"
   style="fill-rule:evenodd;stroke-width:28.22200012;stroke-linejoin:round"
   inkscape:version="0.92.1 r15371"><metadata
     id="metadata4781"><rdf:RDF><cc:Work
         rdf:about=""><dc:format>image/svg+xml</dc:format><dc:type
           rdf:resource="http://purl.org/dc/dcmitype/StillImage" /><dc:title></dc:title></cc:Work></rdf:RDF></metadata><sodipodi:namedview
     pagecolor="#ffffff"
     bordercolor="#666666"
     borderopacity="1"
     objecttolerance="10"
     gridtolerance="10"
     guidetolerance="10"
     inkscape:pageopacity="0"
     inkscape:pageshadow="2"
     inkscape:window-width="2560"
     inkscape:window-height="1422"
     id="namedview4779"
     showgrid="false"
     fit-margin-top="0"
     fit-margin-left="0"
     fit-margin-right="0"
     fit-margin-bottom="0"
     inkscape:zoom="3.0690101"
     inkscape:cx="202.0954"
     inkscape:cy="216.9333"
     inkscape:window-x="0"
     inkscape:window-y="18"
     inkscape:window-maximized="0"
     inkscape:current-layer="g4769" /><defs
     class="ClipPathGroup"
     id="defs4659"><clipPath
       id="presentation_clip_path"
       clipPathUnits="userSpaceOnUse"><rect
         x="0"
         y="0"
         width="21000"
         height="29700"
         id="rect4653" /></clipPath><clipPath
       id="presentation_clip_path_shrink"
       clipPathUnits="userSpaceOnUse"><rect
         x="21"
         y="29"
         width="20958"
         height="29641"
         id="rect4656" /></clipPath></defs><defs
     class="TextShapeIndex"
     id="defs4663"><g
       ooo:slide="id1"
       ooo:id-list="id3 id4 id5 id6 id7"
       id="g4661" /></defs><defs
     class="EmbeddedBulletChars"
     id="defs4695"><g
       id="bullet-char-template(57356)"
       transform="matrix(4.8828125e-4,0,0,-4.8828125e-4,0,0)"><path
         d="M 580,1141 1163,571 580,0 -4,571 Z"
         id="path4665"
         inkscape:connector-curvature="0" /></g><g
       id="bullet-char-template(57354)"
       transform="matrix(4.8828125e-4,0,0,-4.8828125e-4,0,0)"><path
         d="M 8,1128 H 1137 V 0 H 8 Z"
         id="path4668"
         inkscape:connector-curvature="0" /></g><g
       id="bullet-char-template(10146)"
       transform="matrix(4.8828125e-4,0,0,-4.8828125e-4,0,0)"><path
         d="M 174,0 602,739 174,1481 1456,739 Z M 1358,739 309,1346 659,739 Z"
         id="path4671"
         inkscape:connector-curvature="0" /></g><g
       id="bullet-char-template(10132)"
       transform="matrix(4.8828125e-4,0,0,-4.8828125e-4,0,0)"><path
         d="M 2015,739 1276,0 H 717 l 543,543 H 174 v 393 h 1086 l -543,545 h 557 z"
         id="path4674"
         inkscape:connector-curvature="0" /></g><g
       id="bullet-char-template(10007)"
       transform="matrix(4.8828125e-4,0,0,-4.8828125e-4,0,0)"><path
         d="m 0,-2 c -7,16 -16,29 -25,39 l 381,530 c -94,256 -141,385 -141,387 0,25 13,38 40,38 9,0 21,-2 34,-5 21,4 42,12 65,25 l 27,-13 111,-251 280,301 64,-25 24,25 c 21,-10 41,-24 62,-43 C 886,937 835,863 770,784 769,783 710,716 594,584 L 774,223 c 0,-27 -21,-55 -63,-84 l 16,-20 C 717,90 699,76 672,76 641,76 570,178 457,381 L 164,-76 c -22,-34 -53,-51 -92,-51 -42,0 -63,17 -64,51 -7,9 -10,24 -10,44 0,9 1,19 2,30 z"
         id="path4677"
         inkscape:connector-curvature="0" /></g><g
       id="bullet-char-template(10004)"
       transform="matrix(4.8828125e-4,0,0,-4.8828125e-4,0,0)"><path
         d="M 285,-33 C 182,-33 111,30 74,156 52,228 41,333 41,471 c 0,78 14,145 41,201 34,71 87,106 158,106 53,0 88,-31 106,-94 l 23,-176 c 8,-64 28,-97 59,-98 l 735,706 c 11,11 33,17 66,17 42,0 63,-15 63,-46 V 965 c 0,-36 -10,-64 -30,-84 L 442,47 C 390,-6 338,-33 285,-33 Z"
         id="path4680"
         inkscape:connector-curvature="0" /></g><g
       id="bullet-char-template(9679)"
       transform="matrix(4.8828125e-4,0,0,-4.8828125e-4,0,0)"><path
         d="M 813,0 C 632,0 489,54 383,161 276,268 223,411 223,592 c 0,181 53,324 160,431 106,107 249,161 430,161 179,0 323,-54 432,-161 108,-107 162,-251 162,-431 0,-180 -54,-324 -162,-431 C 1136,54 992,0 813,0 Z"
         id="path4683"
         inkscape:connector-curvature="0" /></g><g
       id="bullet-char-template(8226)"
       transform="matrix(4.8828125e-4,0,0,-4.8828125e-4,0,0)"><path
         d="m 346,457 c -73,0 -137,26 -191,78 -54,51 -81,114 -81,188 0,73 27,136 81,188 54,52 118,78 191,78 73,0 134,-26 185,-79 51,-51 77,-114 77,-187 0,-75 -25,-137 -76,-188 -50,-52 -112,-78 -186,-78 z"
         id="path4686"
         inkscape:connector-curvature="0" /></g><g
       id="bullet-char-template(8211)"
       transform="matrix(4.8828125e-4,0,0,-4.8828125e-4,0,0)"><path
         d="M -4,459 H 1135 V 606 H -4 Z"
         id="path4689"
         inkscape:connector-curvature="0" /></g><g
       id="bullet-char-template(61548)"
       transform="matrix(4.8828125e-4,0,0,-4.8828125e-4,0,0)"><path
         d="m 173,740 c 0,163 58,303 173,419 116,115 255,173 419,173 163,0 302,-58 418,-173 116,-116 174,-256 174,-419 0,-163 -58,-303 -174,-418 C 1067,206 928,148 765,148 601,148 462,206 346,322 231,437 173,577 173,740 Z"
         id="path4692"
         inkscape:connector-curvature="0" /></g></defs><defs
     class="TextEmbeddedBitmaps"
     id="defs4697" /><g
     id="g4702"
     transform="translate(6.1035355e-8,-18671.778)"><g
       id="id2"
       class="Master_Slide"><g
         id="bg-id2"
         class="Background" /><g
         id="bo-id2"
         class="BackgroundObjects" /></g></g><g
     class="SlideGroup"
     id="g4775"
     transform="translate(-2385.889,-1285.889)"><g
       id="g4773"><g
         class="Page"
         id="g4769"><rect
           class="BoundingBox"
           x="2399"
           y="5699"
           width="4704"
           height="2304"
           id="rect4704"
           style="fill:none;stroke:none" /><path
           d="M 3606.9581,6275 5925,6275 V 5700 L 7101,6850 5925,8001 v -576 c 0,0 -1317.9908,0 -2318.0419,0 z"
           id="path4708"
           inkscape:connector-curvature="0"
           style="fill:#ffffff;stroke:#000000;fill-opacity:1"
           sodipodi:nodetypes="cccccccc" /><path
           d="M 2400,5700 Z"
           id="path4710"
           inkscape:connector-curvature="0"
           style="fill:none;stroke:#000000" /><path
           d="M 7101,8001 Z"
           id="path4712"
           inkscape:connector-curvature="0"
           style="fill:none;stroke:#000000" /><rect
           class="BoundingBox"
           x="6798"
           y="1299"
           width="2304"
           height="4704"
           id="rect4717"
           style="fill:none;stroke:none" /><path
           d="M 8525,2627.6539 8525,4825 h 575 L 7950,6001 6799,4825 h 576 l 0,-2197.3461 z"
           id="path4721"
           inkscape:connector-curvature="0"
           style="fill:#ffffff;stroke:#000000;fill-opacity:1"
           sodipodi:nodetypes="cccccccc" /><path
           d="M 9100,1300 Z"
           id="path4723"
           inkscape:connector-curvature="0"
           style="fill:none;stroke:#000000" /><path
           d="M 6799,6001 Z"
           id="path4725"
           inkscape:connector-curvature="0"
           style="fill:none;stroke:#000000" /><rect
           class="BoundingBox"
           x="8798"
           y="5698"
           width="4704"
           height="2304"
           id="rect4730"
           style="fill:none;stroke:none" /><path
           d="M 12177.155,7425 9975,7425 v 575 L 8799,6850 9975,5699 v 576 l 2202.155,0 z"
           id="path4734"
           inkscape:connector-curvature="0"
           style="fill:#ffffff;stroke:#000000;fill-opacity:1"
           sodipodi:nodetypes="cccccccc" /><path
           d="M 13500,8000 Z"
           id="path4736"
           inkscape:connector-curvature="0"
           style="fill:none;stroke:#000000" /><path
           d="M 8799,5699 Z"
           id="path4738"
           inkscape:connector-curvature="0"
           style="fill:none;stroke:#000000" /><rect
           class="BoundingBox"
           x="6799"
           y="7598"
           width="2304"
           height="4704"
           id="rect4743"
           style="fill:none;stroke:none" /><path
           d="M 7375,10971.059 7375,8775 H 6800 L 7950,7599 9101,8775 h -576 l 0,2196.059 z"
           id="path4747"
           inkscape:connector-curvature="0"
           style="fill:#ffffff;stroke:#000000;fill-opacity:1"
           sodipodi:nodetypes="cccccccc" /><path
           d="M 6800,12300 Z"
           id="path4749"
           inkscape:connector-curvature="0"
           style="fill:none;stroke:#000000" /><path
           d="M 9101,7599 Z"
           id="path4751"
           inkscape:connector-curvature="0"
           style="fill:none;stroke:#000000" /><rect
           class="BoundingBox"
           x="7399"
           y="6299"
           width="1104"
           height="1104"
           id="rect4756"
           style="fill:none;stroke:none" /><path
           d="m 7950,6300 c 312,0 550,238 550,550 0,312 -238,550 -550,550 -312,0 -550,-238 -550,-550 0,-312 238,-550 550,-550 z m -550,0 z m 1101,1101 z"
           id="path4758"
           inkscape:connector-curvature="0"
           style="fill:#ffffff;stroke:none" /><path
           d="m 7950,6300 c 312,0 550,238 550,550 0,312 -238,550 -550,550 -312,0 -550,-238 -550,-550 0,-312 238,-550 550,-550 z"
           id="path4760"
           inkscape:connector-curvature="0"
           style="fill:none;stroke:#000000" /><path
           d="M 7400,6300 Z"
           id="path4762"
           inkscape:connector-curvature="0"
           style="fill:none;stroke:#000000" /><path
           d="M 8501,7401 Z"
           id="path4764"
           inkscape:connector-curvature="0"
           style="fill:none;stroke:#000000" /></g></g></g></svg>